# xmcd
#
# Track frame offsets:
#	150
#	16170
#	27643
#	38057
#	49285
#	64940
#	89854
#	102044
#	114394
#	134672
#	158517
#	167453
#	182955
#	193491
#	207005
#	223883
#	239519
#	253524
#	263934
#	276959
#	291148
#	309739
#
# Disc length: 4326
#
# Revision: 2
# Processed by: cddbd v1.5.1PL0 Copyright (c) Steve Scherf et al.
# Submitted via: MusicManager v6.1.1.0
# Normalized: r1:DSETVAR1
#
DISCID=5510e416
DTITLE=Various Artist - Lady Sings the Blues CD2
DYEAR=2002
DGENRE=blues 
TTITLE0=Ella Fitzgerald - Every Time You Say Goodbye
TTITLE1=Julie London - Fly me to the Moon
TTITLE2=Dinah Washington - Call Me Irresponsible
TTITLE3=Lena Horne, Ray Ellis and Orchestre - In Love in Vain
TTITLE4=Tina Turner - Night Time Is The Right Time
TTITLE5=Bonnie Raitt - I Can't Make You Love Me
TTITLE6=Erma Franklin - Light My Fire
TTITLE7=Aretha Franklin - Today I Sing The Blues
TTITLE8=Janis Joplin - Me and Bobby McGee
TTITLE9=Dinne Reeves - In A Stentimental Mood
TTITLE10=Nancy Wilson - Wives And Lovers
TTITLE11=Nina Simone - Wild Is The Wind
TTITLE12=Kay Starr - Baby Won't You Please Come Home
TTITLE13=Sue Raney - When Your Lover Has Gone
TTITLE14=Peggy Lee - The Man I Love
TTITLE15=Sarah Vaughan, Jimmie Jones and Orchestra - Stormy Weather
TTITLE16=Betty Lavette - Let Me Down Easy
TTITLE17=Irma Thomas - Wish Someone Would Care
TTITLE18=Betty Swann - Tell It Like It Is
TTITLE19=Billie Holiday With Paul Whiteman Orchestra - Trav'lin Light
TTITLE20=Cassandra Wilson - Time After Time
TTITLE21=Lisa Ekdahl - Daybreak
EXTD=
EXTT0=
EXTT1=
EXTT2=
EXTT3=
EXTT4=
EXTT5=
EXTT6=
EXTT7=
EXTT8=
EXTT9=
EXTT10=
EXTT11=
EXTT12=
EXTT13=
EXTT14=
EXTT15=
EXTT16=
EXTT17=
EXTT18=
EXTT19=
EXTT20=
EXTT21=
PLAYORDER=
